<svg xmlns="http://www.w3.org/2000/svg" viewBox="0 0 119.00615 26.05116"><defs><style>.a,.c{fill:#fff;}.b{fill:#c7102f;}.c{fill-rule:evenodd;}</style></defs><path class="a" d="M36.58952,18.16553l-2.21317-5.99431-2.20287,5.99431ZM28.87435,22.613,33.46221,10.5624h1.83858L39.88866,22.613H38.19441l-1.09627-3.09362H31.68549L30.58921,22.613Zm14.13131-1.35389v4.792H41.52448V13.57334h1.48118v1.36422a3.06556,3.06556,0,0,1,1.17876-1.192,3.47327,3.47327,0,0,1,1.70455-.39618A3.23234,3.23234,0,0,1,48.55921,14.662a5.36583,5.36583,0,0,1,1.03442,3.44156,5.39886,5.39886,0,0,1-1.03442,3.44157A3.24135,3.24135,0,0,1,45.889,22.8473a3.54871,3.54871,0,0,1-1.70455-.38584A3.1673,3.1673,0,0,1,43.00566,21.25915Zm5.04493-3.15563a4.29864,4.29864,0,0,0-.68044-2.57342,2.124,2.124,0,0,0-1.83859-.937,2.18082,2.18082,0,0,0-1.8592.937,4.34814,4.34814,0,0,0-.67014,2.57342,4.3481,4.3481,0,0,0,.67014,2.57342,2.18441,2.18441,0,0,0,1.8592.92671,2.13542,2.13542,0,0,0,1.83859-.92671A4.2986,4.2986,0,0,0,48.05059,18.10352Zm5.43327,3.15563v4.792H51.99238V13.57334h1.49148v1.36422a3.08955,3.08955,0,0,1,1.16845-1.192,3.49583,3.49583,0,0,1,1.71486-.39618A3.22244,3.22244,0,0,1,59.02711,14.662a5.36589,5.36589,0,0,1,1.03442,3.44156,5.39892,5.39892,0,0,1-1.03442,3.44157,3.23136,3.23136,0,0,1-2.65994,1.30221,3.57189,3.57189,0,0,1-1.71486-.38584A3.16878,3.16878,0,0,1,53.48386,21.25915Zm5.03463-3.15563A4.29864,4.29864,0,0,0,57.838,15.5301a2.124,2.124,0,0,0-1.83858-.937,2.1808,2.1808,0,0,0-1.8592.937,4.39945,4.39945,0,0,0-.65983,2.57342,4.39941,4.39941,0,0,0,.65983,2.57342,2.18441,2.18441,0,0,0,1.8592.92671,2.13539,2.13539,0,0,0,1.83858-.92671A4.2986,4.2986,0,0,0,58.51849,18.10352ZM70.72186,20.894V17.65912H68.07224V16.31556h4.26483v5.1813a7.14088,7.14088,0,0,1-2.08258,1.01627,8.42689,8.42689,0,0,1-2.41593.33417,5.85288,5.85288,0,0,1-4.416-1.65016,6.36982,6.36982,0,0,1-1.58428-4.59909A6.36979,6.36979,0,0,1,63.42253,11.999a5.83792,5.83792,0,0,1,4.416-1.6605,8.1778,8.1778,0,0,1,2.22348.29627,6.94842,6.94842,0,0,1,1.95887.85437v1.73972a6.48335,6.48335,0,0,0-1.91763-1.161,5.92789,5.92789,0,0,0-2.1307-.38584,4.26308,4.26308,0,0,0-3.31975,1.22986,5.40982,5.40982,0,0,0-1.09628,3.68272A5.36839,5.36839,0,0,0,64.65283,20.267a4.26309,4.26309,0,0,0,3.31975,1.22987,7.72223,7.72223,0,0,0,1.543-.14125A4.04923,4.04923,0,0,0,70.72186,20.894Zm10.04176-2.8318H79.29276a5.2006,5.2006,0,0,0-2.4881.41685,1.49785,1.49785,0,0,0-.69076,1.40556,1.60431,1.60431,0,0,0,.51893,1.26088,2.045,2.045,0,0,0,1.41244.45818,2.46846,2.46846,0,0,0,1.97948-.875,3.48265,3.48265,0,0,0,.74231-2.33227v-.33417Zm1.48118-.60976V22.613H80.76362V21.23848a3.28571,3.28571,0,0,1-1.25779,1.223,4.067,4.067,0,0,1-1.85921.38584,3.07665,3.07665,0,0,1-2.20286-.77513,2.77759,2.77759,0,0,1-.811-2.098,2.732,2.732,0,0,1,1.0138-2.30126,5.00608,5.00608,0,0,1,3.04483-.77513h2.07227v-.14124a1.95232,1.95232,0,0,0-.67014-1.58815,2.8679,2.8679,0,0,0-1.88669-.5581,6.22447,6.22447,0,0,0-1.50179.18259,5.88507,5.88507,0,0,0-1.41245.55809V13.9764a9.62821,9.62821,0,0,1,1.58428-.46852A6.9594,6.9594,0,0,1,78.358,13.346a3.84915,3.84915,0,0,1,2.92455,1.01628A4.36763,4.36763,0,0,1,82.2448,17.45242ZM85.29994,22.613V10.056h1.48117V22.613Zm4.581,0V10.056h1.48118V22.613Zm12.2515-4.89536v.73379H95.32108a3.44823,3.44823,0,0,0,.91414,2.33916,3.19552,3.19552,0,0,0,2.306.79235,6.6718,6.6718,0,0,0,1.64613-.20325,7.24449,7.24449,0,0,0,1.59458-.63044v1.40556a9.31824,9.31824,0,0,1-1.63582.5202,8.4143,8.4143,0,0,1-1.69425.17225A4.64565,4.64565,0,0,1,95.029,21.58643a4.57951,4.57951,0,0,1-1.25779-3.40023,4.96842,4.96842,0,0,1,1.19937-3.5208,4.1554,4.1554,0,0,1,3.227-1.31254,3.65263,3.65263,0,0,1,2.873,1.18163A4.55347,4.55347,0,0,1,102.13243,17.71768Zm-6.77012-.42718h5.28894a2.85989,2.85989,0,0,0-.69076-1.95332,2.26014,2.26014,0,0,0-1.7561-.72345,2.7981,2.7981,0,0,0-1.9898.70278A2.96925,2.96925,0,0,0,95.36231,17.2905Zm14.365-3.85841.01031,1.52614a2.07562,2.07562,0,0,0-.54985-.21359,2.691,2.691,0,0,0-.63922-.07235,2.3758,2.3758,0,0,0-1.93824.82336,3.6162,3.6162,0,0,0-.67014,2.3495v4.76444H104.459V13.57334h1.48117V14.9789a3.02305,3.02305,0,0,1,1.22-1.223,3.76141,3.76141,0,0,1,1.818-.40651,2.15179,2.15179,0,0,1,.34366.031A3.26653,3.26653,0,0,1,109.72732,13.43209Zm9.27883.14125-3.959,9.87339a5.4252,5.4252,0,0,1-1.22687,2.11524,2.43689,2.43689,0,0,1-1.59458.48919h-1.18906V24.811h.87289a1.42885,1.42885,0,0,0,.95538-.29628,3.64684,3.64684,0,0,0,.74231-1.37455l.27492-.67178-3.65654-8.895h1.574L114.621,20.6356l2.81114-7.06226Z"/><path class="a" d="M28.78156,6.32848V.11024h3.91773V.813H29.61321V2.6561h2.95548v.71312H29.61321V5.61881h3.16855v.71312h-4.0002Zm7.00723-3.31754L33.86086.11024h.90382l1.543,2.3116,1.543-2.3116h.90383L36.76479,3.09362l2.12038,3.23486h-.90383L36.24586,3.68271,34.47944,6.32848h-.90382ZM41.87845.80269h-1.055V3.135h1.055a1.31509,1.31509,0,0,0,.91414-.29627,1.16561,1.16561,0,0,0,.31617-.875,1.13746,1.13746,0,0,0-.31617-.85437A1.28672,1.28672,0,0,0,41.87845.80269ZM39.99176,6.32848V.11024h1.88669a2.34677,2.34677,0,0,1,1.58428.46852,1.77839,1.77839,0,0,1,.52923,1.3849,1.76531,1.76531,0,0,1-.52923,1.39522,2.34064,2.34064,0,0,1-1.58428.46852h-1.055V6.33193h-.83166Zm5.12741,0V.11024h.842V5.61537h3.02421v.71311ZM52.08173.68211a1.77735,1.77735,0,0,0-1.46056.68211A2.97939,2.97939,0,0,0,50.09194,3.228a2.99172,2.99172,0,0,0,.52923,1.86375,1.77736,1.77736,0,0,0,1.46056.68212,1.7206,1.7206,0,0,0,1.43994-.68212A2.96545,2.96545,0,0,0,54.06121,3.228a2.92447,2.92447,0,0,0-.53954-1.86375A1.71159,1.71159,0,0,0,52.08173.68211Zm0-.68211a2.6627,2.6627,0,0,1,2.08258.875,3.38976,3.38976,0,0,1,.78011,2.3495,3.40029,3.40029,0,0,1-.78011,2.3495,2.6627,2.6627,0,0,1-2.08258.875,2.70671,2.70671,0,0,1-2.1032-.875,3.38971,3.38971,0,0,1-.78011-2.3495A3.40029,3.40029,0,0,1,49.97853.875,2.69515,2.69515,0,0,1,52.08173,0Zm7.11721,3.40711a1.23517,1.23517,0,0,1,.52923.39618,4.23736,4.23736,0,0,1,.51893.82336L61.09937,6.325h-.90382l-.79042-1.59849a2.30047,2.30047,0,0,0-.598-.82335,1.37837,1.37837,0,0,0-.79042-.20326h-.91413V6.325h-.842V.11024h1.897a2.41453,2.41453,0,0,1,1.59458.44785,1.66991,1.66991,0,0,1,.51893,1.34355,1.66057,1.66057,0,0,1-.27493.97839A1.41033,1.41033,0,0,1,59.19894,3.40711ZM58.15421.80269h-1.055V3.01094h1.055a1.29867,1.29867,0,0,0,.91414-.28594,1.05554,1.05554,0,0,0,.31617-.82336,1.03593,1.03593,0,0,0-.31617-.82335A1.331,1.331,0,0,0,58.15421.80269ZM62.175,6.32848V.11024h3.91772V.813H63.017V2.6561h2.95548v.71312H63.017V5.61881h3.15824v.71312H62.175Zm8.07945,0V.11024h.842V6.32848ZM71.91094.813V.11024h5.24768V.813H74.95577V6.32848h-.842V.813ZM83.18987.68211a1.74877,1.74877,0,0,0-1.45025.68211A2.9385,2.9385,0,0,0,81.20008,3.228a2.951,2.951,0,0,0,.53954,1.86375,1.88274,1.88274,0,0,0,2.9005,0A3.00677,3.00677,0,0,0,85.16935,3.228a2.96475,2.96475,0,0,0-.52923-1.86375A1.73955,1.73955,0,0,0,83.18987.68211Zm0-.68211a2.67474,2.67474,0,0,1,2.09288.875,3.38972,3.38972,0,0,1,.78012,2.3495,3.40029,3.40029,0,0,1-.78012,2.3495,2.94039,2.94039,0,0,1-4.18578,0,3.38976,3.38976,0,0,1-.7801-2.3495A3.40033,3.40033,0,0,1,81.097.875,2.66344,2.66344,0,0,1,83.18987,0Zm4.18234,6.32848V.11024h1.12721l2.75272,5.202V.11024h.82135V6.32848H90.936l-2.75272-5.202v5.202Z"/><path class="b" d="M18.16245.13091H7.11721C1.90732.13091,0,2.03256,0,7.25519V18.32745c0,5.22263,1.90732,7.13461,7.11721,7.13461H18.16245c5.19958,0,7.1069-1.912,7.1069-7.13461V7.25519C25.26935,2.03256,23.37234.13091,18.16245.13091Z"/><path class="c" d="M10.78406,15.41642l-.30586.68211H9.79776L11.248,12.79132h.58766l1.45025,3.30721h-.70107l-.29554-.68211Zm.24057-.59944h1.01379l-.50861-1.18163Zm10.76344-2.02566h.67014v3.30721h-.67014Zm-2.629,2.70778h1.83858v.59943H18.49924V12.79132h2.42624v.60976H19.15907v.67178h1.22v.60977h-1.22Zm-1.90044-2.70778h.70106l-1.14783,3.31754h-.567l-.75262-2.17724-.75262,2.17724h-.54985L13.0316,12.79132h.72169l.732,2.28059.74231-2.28059h.54986l.75261,2.28059Zm-8.47467,0H9.4541V14.6654A1.33324,1.33324,0,0,1,8.021,16.16054a1.31818,1.31818,0,0,1-1.41244-1.47447V12.79476h.67014v1.87409c0,.55809.26461.85436.75261.85436s.75262-.29627.75262-.83369v-1.8982Zm-3.77683,0h.67014v3.31754H5.00713V14.755H3.495v1.35389H2.82489V12.79132H3.495v1.33322h1.5121Zm7.6327-4.21325a4.20787,4.20787,0,0,1-4.203-4.21324h.58766a3.61531,3.61531,0,0,0,7.23062,0h.58765A4.2167,4.2167,0,0,1,12.63983,8.57807Z"/></svg>