<svg xmlns="http://www.w3.org/2000/svg" xmlns:xlink="http://www.w3.org/1999/xlink" viewBox="0 0 115.82574 27.28137"><defs><style>.a,.b,.i{fill:#fff;}.a{stroke:#fff;stroke-width:0.2px;}.c{fill:url(#a);}.d{fill:url(#b);}.e{fill:url(#c);}.f{fill:url(#d);}.g{opacity:0.2;}.g,.h,.i{isolation:isolate;}.h{opacity:0.12;}.i{opacity:0.25;}</style><linearGradient id="a" x1="7.13973" y1="39.49766" x2="6.79519" y2="38.82833" gradientTransform="matrix(12.90506, 0, 0, -25.07, -84.20826, 992.20611)" gradientUnits="userSpaceOnUse"><stop offset="0" stop-color="#00a0ff"/><stop offset="0.01" stop-color="#00a1ff"/><stop offset="0.26" stop-color="#00beff"/><stop offset="0.51" stop-color="#00d2ff"/><stop offset="0.76" stop-color="#00dfff"/><stop offset="1" stop-color="#00e3ff"/></linearGradient><linearGradient id="b" x1="7.22547" y1="38.77709" x2="4.84222" y2="38.77709" gradientTransform="matrix(10.15, 0, 0, -8.56, -49.50274, 345.16295)" gradientUnits="userSpaceOnUse"><stop offset="0" stop-color="#ffe000"/><stop offset="0.41" stop-color="#ffbd00"/><stop offset="0.78" stop-color="orange"/><stop offset="1" stop-color="#ff9c00"/></linearGradient><linearGradient id="c" x1="7.63621" y1="39.19219" x2="6.2717" y2="38.13983" gradientTransform="matrix(16.68, 0, 0, -12.86994, -113.63378, 520.50747)" gradientUnits="userSpaceOnUse"><stop offset="0" stop-color="#ff3a44"/><stop offset="1" stop-color="#c31162"/></linearGradient><linearGradient id="d" x1="6.58525" y1="39.44936" x2="7.19437" y2="38.97947" gradientTransform="matrix(16.68, 0, 0, -12.86765, -113.63378, 507.54875)" gradientUnits="userSpaceOnUse"><stop offset="0" stop-color="#32a071"/><stop offset="0.07" stop-color="#2da771"/><stop offset="0.48" stop-color="#15cf74"/><stop offset="0.8" stop-color="#06e775"/><stop offset="1" stop-color="#00f076"/></linearGradient></defs><path class="a" d="M37.42574,3.471a2.72,2.72,0,0,1-.75,2,2.9,2.9,0,0,1-2.2.88,3,3,0,0,1-2.21-.9,3,3,0,0,1-.91-2.22,3,3,0,0,1,.91-2.23,3.16,3.16,0,0,1,3.44-.65,2.5402,2.5402,0,0,1,.94.67l-.53.53a2,2,0,0,0-1.64-.72,2.32,2.32,0,0,0-2.33,2.4,2.36,2.36,0,0,0,4,1.73,1.93,1.93,0,0,0,.51-1.22h-2.18v-.72h2.91A3.75166,3.75166,0,0,1,37.42574,3.471Z"/><polygon class="a" points="42.006 0.971 39.306 0.971 39.306 2.871 41.766 2.871 41.766 3.591 39.306 3.591 39.306 5.491 42.006 5.491 42.006 6.231 38.526 6.231 38.526 0.231 42.006 0.231 42.006 0.971"/><polygon class="a" points="45.286 6.231 44.516 6.231 44.516 0.971 42.836 0.971 42.836 0.231 47.006 0.231 47.006 0.971 45.286 0.971 45.286 6.231"/><polygon class="a" points="49.946 6.231 49.946 0.231 50.716 0.231 50.716 6.231 49.946 6.231"/><polygon class="a" points="54.136 6.231 53.366 6.231 53.366 0.971 51.686 0.971 51.686 0.231 55.806 0.231 55.806 0.971 54.136 0.971 54.136 6.231"/><path class="a" d="M63.61574,5.451a3.11,3.11,0,0,1-4.4,0,3,3,0,0,1-.88-2.22,3,3,0,0,1,.88-2.22,2.93,2.93,0,0,1,2.2-.91,3.00008,3.00008,0,0,1,2.2.91,3.07,3.07,0,0,1,.88,2.22,3,3,0,0,1-.88,2.22Zm-3.83-.5a2.29,2.29,0,0,0,3.26,0,2.36,2.36,0,0,0,.67-1.72,2.36006,2.36006,0,0,0-.71-1.72,2.29,2.29,0,0,0-3.26,0,2.36,2.36,0,0,0-.63,1.72,2.36,2.36,0,0,0,.67,1.72Z"/><polygon class="a" points="65.586 6.231 65.586 0.231 66.516 0.231 69.436 4.901 69.436 4.901 69.436 3.741 69.436 0.231 70.206 0.231 70.206 6.231 69.406 6.231 66.356 1.341 66.356 1.341 66.356 2.491 66.356 6.231 65.586 6.231"/><path class="b" d="M58.14574,14.981a4.26,4.26,0,1,0,4.27,4.25,4.19,4.19,0,0,0-4.27-4.25Zm0,6.83a2.58,2.58,0,1,1,2.4-2.58,2.46,2.46,0,0,1-2.4,2.58Zm-9.32-6.83a4.26,4.26,0,1,0,4.27,4.25,4.19,4.19,0,0,0-4.27-4.25Zm0,6.83a2.58,2.58,0,1,1,2.4-2.58,2.46,2.46,0,0,1-2.4,2.58Zm-11.08-5.52v1.8h4.32a3.77,3.77,0,0,1-1,2.27,4.42,4.42,0,0,1-3.34,1.32,4.8,4.8,0,1,1,0-9.6,4.64,4.64,0,0,1,3.28,1.29l1.27-1.27a6.3,6.3,0,0,0-4.53-1.82,6.61,6.61,0,1,0,0,13.21,6.07,6.07,0,0,0,4.61-1.85,6,6,0,0,0,1.56-4.23,6.2708,6.2708,0,0,0-.09-1.12Zm45.31,1.4a3.92925,3.92925,0,0,0-7.64,1.54,4.23,4.23,0,0,0,7.76,2.37l-1.45-1a2.41,2.41,0,0,1-2.09,1.17,2.15,2.15,0,0,1-2.06-1.29l5.69-2.35Zm-5.8,1.42a2.33,2.33,0,0,1,2.23-2.48,1.64,1.64,0,0,1,1.57.9Zm-4.62,4.12h1.87v-12.5h-1.87Zm-3.06-7.3h-.07a2.94,2.94,0,0,0-2.24-.95,4.26,4.26,0,0,0,0,8.51,2.88,2.88,0,0,0,2.24-1h.07v.61c0,1.63-.87,2.5-2.27,2.5a2.36,2.36,0,0,1-2.15-1.51l-1.62.67a4,4,0,0,0,3.77,2.52c2.19,0,4-1.29,4-4.43v-7.62h-1.73Zm-2.15,5.88a2.58,2.58,0,0,1,0-5.15,2.39,2.39,0,0,1,2.28,2.57,2.38,2.38,0,0,1-2.28,2.58Zm24.39-11.08h-4.48v12.5h1.87v-4.74h2.61a3.89,3.89,0,1,0,0-7.76Zm0,6h-2.61v-4.26h2.65a2.14,2.14,0,0,1,0,4.28Zm11.54-1.79a3.49,3.49,0,0,0-3.33,1.91l1.65.69a1.78,1.78,0,0,1,1.71-.91,1.8,1.8,0,0,1,2,1.61v.12a4.1801,4.1801,0,0,0-1.95-.48c-1.78,0-3.6,1-3.6,2.82a2.89,2.89,0,0,0,3.11,2.75,2.65,2.65,0,0,0,2.38-1.22h.06v1h1.8v-4.81c0-2.19-1.66-3.46-3.79-3.46Zm-.23,6.85c-.61,0-1.46-.31-1.46-1.06,0-1,1.06-1.34,2-1.34a3.32011,3.32011,0,0,1,1.7.42,2.26,2.26,0,0,1-2.2,2Zm10.62-6.56-2.14,5.42h-.06l-2.22-5.42h-2l3.33,7.58-1.9,4.21h2l5.07-11.79Zm-16.8,8h1.86v-12.5h-1.86Z"/><path class="c" d="M.44574.771a2,2,0,0,0-.44,1.4v22.12a1.94,1.94,0,0,0,.47,1.4l.07.08,12.36-12.39v-.3L.51574.701Z"/><path class="d" d="M17.00574,17.511l-4.1-4.13v-.3l4.1-4.13.09.06,4.91,2.78c1.4.79,1.4,2.09,0,2.89l-4.89,2.78Z"/><path class="e" d="M17.12574,17.461l-4.22-4.23-12.46,12.46a1.62,1.62,0,0,0,2.07.07l14.61-8.3"/><path class="f" d="M17.12574,9.011l-14.61-8.3a1.61,1.61,0,0,0-2.07.06l12.46,12.46Z"/><path class="g" d="M17.00574,17.361l-14.49,8.25a1.66,1.66,0,0,1-2,0h0l-.07.07h0l.07.08h0a1.66,1.66,0,0,0,2,0l14.61-8.3Z"/><path class="h" d="M.44574,25.551a2,2,0,0,1-.44-1.41v.15a1.94,1.94,0,0,0,.47,1.4l.07-.07Z"/><path class="h" d="M22.00574,14.531l-5,2.83.09.1,4.91-2.79a1.75,1.75,0,0,0,1.06-1.44h0a1.86,1.86,0,0,1-1.06,1.3Z"/><path class="i" d="M2.51574.851l19.49,11.08a1.86,1.86,0,0,1,1.06,1.3h0a1.75,1.75,0,0,0-1.06-1.44L2.51574.711c-1.39-.8-2.51-.14-2.51,1.46v.15C.00574.721,1.12574.061,2.51574.851Z"/></svg>