<svg xmlns="http://www.w3.org/2000/svg" xmlns:xlink="http://www.w3.org/1999/xlink" width="188" height="46" viewBox="0 0 188 46"><defs><linearGradient id="a" x1="42.76" y1="15.72" x2="1.98" y2="0.87" gradientUnits="userSpaceOnUse"><stop offset="0.4" stop-color="#ffc425"/><stop offset="0.68" stop-color="#aa8e40"/><stop offset="0.9" stop-color="#6f6854"/><stop offset="1" stop-color="#58595b"/></linearGradient><linearGradient id="b" x1="42.12" y1="23.67" x2="1.59" y2="8.92" gradientUnits="userSpaceOnUse"><stop offset="0.45" stop-color="#ffc425"/><stop offset="0.71" stop-color="#aa8e40"/><stop offset="0.91" stop-color="#6f6854"/><stop offset="1" stop-color="#58595b"/></linearGradient><linearGradient id="c" x1="42.26" y1="30.45" x2="1.69" y2="15.68" gradientUnits="userSpaceOnUse"><stop offset="0.52" stop-color="#ffc425"/><stop offset="0.74" stop-color="#aa8e40"/><stop offset="0.92" stop-color="#6f6854"/><stop offset="1" stop-color="#58595b"/></linearGradient><linearGradient id="d" x1="42.37" y1="37.15" x2="1.81" y2="22.39" gradientUnits="userSpaceOnUse"><stop offset="0.6" stop-color="#ffc425"/><stop offset="0.79" stop-color="#aa8e40"/><stop offset="0.93" stop-color="#6f6854"/><stop offset="1" stop-color="#58595b"/></linearGradient><linearGradient id="e" x1="41.92" y1="45.51" x2="1.04" y2="30.63" gradientUnits="userSpaceOnUse"><stop offset="0.65" stop-color="#ffc425"/><stop offset="0.81" stop-color="#aa8e40"/><stop offset="0.94" stop-color="#6f6854"/><stop offset="1" stop-color="#58595b"/></linearGradient></defs><title>tymebank-logo</title><polygon points="70.67 12 53 12 53 16.21 59.47 16.21 59.47 34.77 64.21 34.77 64.21 16.21 70.67 16.21 70.67 12"/><path d="M74.33,29.57h-.06L70.74,18.28H66.17l5.47,15.47a2.88,2.88,0,0,1,.18,1,2.37,2.37,0,0,1-.4,1.34,1.69,1.69,0,0,1-1.26.7,9,9,0,0,1-1.27,0l-1.24-.13v3.73l1.32.11c.43,0,.87,0,1.31,0a6,6,0,0,0,3.45-.86,5.61,5.61,0,0,0,1.93-2.87l6.53-18.53H77.75Z"/><path d="M105.42,19.18a4.63,4.63,0,0,0-1.81-1,8,8,0,0,0-2.3-.32,4.81,4.81,0,0,0-2.82.83,6.75,6.75,0,0,0-1.89,1.92,3.94,3.94,0,0,0-1.86-2.14,6.05,6.05,0,0,0-2.7-.61,5.3,5.3,0,0,0-2.74.71,6.26,6.26,0,0,0-2,2H87.2V18.28h-4V34.77h4.29V25.2a4.72,4.72,0,0,1,.34-2,3.09,3.09,0,0,1,.8-1.15,2.73,2.73,0,0,1,1-.54,3.35,3.35,0,0,1,.8-.14,2.77,2.77,0,0,1,1.56.36,2,2,0,0,1,.76,1,4.24,4.24,0,0,1,.25,1.32c0,.48,0,1,0,1.45v9.25h4.29V25.58a10.84,10.84,0,0,1,.11-1.51,4,4,0,0,1,.42-1.34,2.7,2.7,0,0,1,.88-1,2.65,2.65,0,0,1,1.46-.36,2.7,2.7,0,0,1,1.44.32,2.07,2.07,0,0,1,.8.86,3.43,3.43,0,0,1,.33,1.27q.06.74.06,1.56v9.35H107v-11A7.81,7.81,0,0,0,106.6,21,4.6,4.6,0,0,0,105.42,19.18Z"/><path d="M122.33,20.83a6.95,6.95,0,0,0-5.91-3,7.69,7.69,0,0,0-3.25.68,7.44,7.44,0,0,0-2.52,1.83A8,8,0,0,0,109,23.1a9.9,9.9,0,0,0-.58,3.44,10.59,10.59,0,0,0,.56,3.51,7.9,7.9,0,0,0,1.59,2.74,6.85,6.85,0,0,0,2.51,1.77,8.54,8.54,0,0,0,3.32.62A7.86,7.86,0,0,0,121,33.91a7.57,7.57,0,0,0,2.78-4.24H120a2.83,2.83,0,0,1-1.14,1.45,4.23,4.23,0,0,1-5-.31,4.75,4.75,0,0,1-1.06-3.19H124a12.32,12.32,0,0,0-.3-3.66A9.32,9.32,0,0,0,122.33,20.83Zm-9.6,3.92a5.56,5.56,0,0,1,.2-1.08,3.44,3.44,0,0,1,.57-1.15,3.51,3.51,0,0,1,1.09-.91,3.61,3.61,0,0,1,1.71-.36,2.93,2.93,0,0,1,2.34.89,5.43,5.43,0,0,1,1.07,2.61Z"/><path d="M138.26,22.75v-.07a4.23,4.23,0,0,0,1.53-.67A5,5,0,0,0,141,20.85a5.5,5.5,0,0,0,.77-1.53,5.65,5.65,0,0,0,.27-1.74,5.6,5.6,0,0,0-.57-2.66,4.81,4.81,0,0,0-1.53-1.72,6,6,0,0,0-2.2-.93,12.45,12.45,0,0,0-2.62-.27H126V34.77h9.12a11.94,11.94,0,0,0,3-.34,7.93,7.93,0,0,0,2.11-.86,4.61,4.61,0,0,0,1.38-1.23,5.86,5.86,0,0,0,.78-1.42,5.7,5.7,0,0,0,.37-1.4,9.37,9.37,0,0,0,.09-1.23,5.75,5.75,0,0,0-1.24-3.74A5,5,0,0,0,138.26,22.75ZM128,13.85h7.07q4.88,0,4.87,4.27a3.79,3.79,0,0,1-.3,1.5,3.52,3.52,0,0,1-.91,1.23,4.38,4.38,0,0,1-1.51.83,6.89,6.89,0,0,1-2.15.3H128Zm12.3,16.66A3.66,3.66,0,0,1,139.08,32a4.88,4.88,0,0,1-1.81.75,10.9,10.9,0,0,1-2.18.21H128V23.83h7.07a7,7,0,0,1,4.22,1.1,3.87,3.87,0,0,1,1.46,3.3A5.15,5.15,0,0,1,140.32,30.51Z"/><path d="M156.42,31.86V23.13a6.13,6.13,0,0,0-.51-2.7,4.27,4.27,0,0,0-1.33-1.61,4.88,4.88,0,0,0-1.84-.78,10.29,10.29,0,0,0-2.06-.21,9.07,9.07,0,0,0-2.47.32,5.61,5.61,0,0,0-2,1,4.64,4.64,0,0,0-1.32,1.72,7.07,7.07,0,0,0-.57,2.49h1.9a3.64,3.64,0,0,1,1.21-2.92,4.66,4.66,0,0,1,3-.9,8.11,8.11,0,0,1,1.59.14,3.66,3.66,0,0,1,1.3.52,2.69,2.69,0,0,1,.87,1,3.9,3.9,0,0,1,.32,1.68,3,3,0,0,1-.17,1.08,1.5,1.5,0,0,1-.46.65,2,2,0,0,1-.76.34c-.3.06-.66.12-1.06.16-1,.12-2,.26-3,.4a10.09,10.09,0,0,0-2.69.71,4.54,4.54,0,0,0-1.92,1.49,4.41,4.41,0,0,0-.73,2.69,5.22,5.22,0,0,0,.41,2.15,4.05,4.05,0,0,0,1.12,1.5,4.53,4.53,0,0,0,1.66.86,7.5,7.5,0,0,0,2,.27,7.62,7.62,0,0,0,2-.22,5.16,5.16,0,0,0,2.66-1.67,14.13,14.13,0,0,0,1-1.42h.06a8.23,8.23,0,0,0,.08,1.16,2.34,2.34,0,0,0,.31.91,1.57,1.57,0,0,0,.68.59,2.75,2.75,0,0,0,1.17.21,4,4,0,0,0,.65,0l.59-.09V33a1.39,1.39,0,0,1-.61.13C156.8,33.08,156.42,32.67,156.42,31.86Zm-1.9-3.47a5.19,5.19,0,0,1-.44,2.17,4.71,4.71,0,0,1-1.18,1.62,4.92,4.92,0,0,1-1.73,1,6.12,6.12,0,0,1-2.09.36,3.92,3.92,0,0,1-1.3-.23,3.39,3.39,0,0,1-1.12-.65,3.35,3.35,0,0,1-.77-1,3.09,3.09,0,0,1-.28-1.36,2.43,2.43,0,0,1,.68-1.86,4.53,4.53,0,0,1,1.73-1,12.92,12.92,0,0,1,2.35-.52c.85-.12,1.68-.25,2.49-.4a7.25,7.25,0,0,0,.9-.22,1.11,1.11,0,0,0,.7-.51h.06Z"/><path d="M171.05,19.54a4.46,4.46,0,0,0-1.77-1.26,7.3,7.3,0,0,0-2.73-.44,5.53,5.53,0,0,0-3.06.9,4.79,4.79,0,0,0-1.93,2.41h-.06V18.31h-1.9V34.77h1.9v-9.6a7.68,7.68,0,0,1,.38-2.25,5.53,5.53,0,0,1,1-1.78A4.4,4.4,0,0,1,164.36,20a4.55,4.55,0,0,1,2-.43,4.21,4.21,0,0,1,1.92.38A3.08,3.08,0,0,1,169.54,21a4.3,4.3,0,0,1,.63,1.58,10.05,10.05,0,0,1,.18,2V34.77h1.91V24.18a11.34,11.34,0,0,0-.28-2.65A4.83,4.83,0,0,0,171.05,19.54Z"/><polygon points="180.9 24.4 187.55 18.31 185.01 18.31 176.37 26.29 176.37 12 174.46 12 174.46 34.77 176.37 34.77 176.37 28.52 179.45 25.81 185.61 34.77 188 34.77 180.9 24.4"/><polygon points="30.46 0 0 6.31 0 11.4 27.87 6.54 43.91 12.54 43.91 8.8 30.46 0" fill="url(#a)"/><polygon points="0 13.3 0 18.59 24.02 16.56 43.91 18.75 43.91 14.07 26.9 9.17 0 13.3" fill="url(#b)"/><polygon points="0 20.32 0 25.74 19.52 27.11 43.91 25.9 43.91 20.38 22.9 19.04 0 20.32" fill="url(#c)"/><polygon points="0 31.86 15.63 36.93 43.91 32.92 43.91 27.57 18.42 29.54 0 27.37 0 31.86" fill="url(#d)"/><polygon points="0 36.99 12.05 46 43.91 40.03 43.91 34.88 14.59 39.56 0 33.48 0 36.99" fill="url(#e)"/></svg>